<mxfile host="65bd71144e" pages="2">
    <diagram id="nwH1zk-VSpNsyaRbcgjk" name="Página-1">
        <mxGraphModel dx="1227" dy="1173" grid="1" gridSize="10" guides="1" tooltips="1" connect="1" arrows="1" fold="1" page="0" pageScale="1" pageWidth="1169" pageHeight="827" math="0" shadow="0">
            <root>
                <mxCell id="0"/>
                <mxCell id="1" parent="0"/>
                <mxCell id="9EDs6_VTEpOYnizv38g4-2" value="" style="rounded=1;whiteSpace=wrap;html=1;" parent="1" vertex="1">
                    <mxGeometry x="100" y="-10" width="1010" height="390" as="geometry"/>
                </mxCell>
                <mxCell id="9EDs6_VTEpOYnizv38g4-3" value="ESP32 CAM" style="rounded=1;whiteSpace=wrap;html=1;" parent="1" vertex="1">
                    <mxGeometry x="120" y="-150" width="120" height="60" as="geometry"/>
                </mxCell>
                <mxCell id="9EDs6_VTEpOYnizv38g4-4" value="GUI / MANDO" style="rounded=1;whiteSpace=wrap;html=1;" parent="1" vertex="1">
                    <mxGeometry x="140" y="550" width="980" height="60" as="geometry"/>
                </mxCell>
                <mxCell id="9EDs6_VTEpOYnizv38g4-5" value="" style="endArrow=classic;html=1;rounded=0;" parent="1" edge="1">
                    <mxGeometry width="50" height="50" relative="1" as="geometry">
                        <mxPoint x="179.57999999999998" y="-21.280029296875" as="sourcePoint"/>
                        <mxPoint x="179.57999999999998" y="-90" as="targetPoint"/>
                    </mxGeometry>
                </mxCell>
                <mxCell id="9EDs6_VTEpOYnizv38g4-6" value="PULSACIÓN&lt;br&gt;int" style="edgeLabel;html=1;align=center;verticalAlign=middle;resizable=0;points=[];" parent="9EDs6_VTEpOYnizv38g4-5" vertex="1" connectable="0">
                    <mxGeometry x="-0.4036" y="-1" relative="1" as="geometry">
                        <mxPoint x="-1" y="-8" as="offset"/>
                    </mxGeometry>
                </mxCell>
                <mxCell id="9EDs6_VTEpOYnizv38g4-7" value="" style="endArrow=classic;html=1;rounded=0;strokeWidth=4;fillColor=#e1d5e7;strokeColor=#9673a6;exitX=0;exitY=0.5;exitDx=0;exitDy=0;" parent="1" source="9EDs6_VTEpOYnizv38g4-3" edge="1">
                    <mxGeometry width="50" height="50" relative="1" as="geometry">
                        <mxPoint x="110" y="40" as="sourcePoint"/>
                        <mxPoint x="580" y="610" as="targetPoint"/>
                        <Array as="points">
                            <mxPoint x="60" y="-120"/>
                            <mxPoint x="60" y="660"/>
                            <mxPoint x="580" y="660"/>
                        </Array>
                    </mxGeometry>
                </mxCell>
                <mxCell id="9EDs6_VTEpOYnizv38g4-9" value="VÍDEO&amp;nbsp; &lt;br&gt;SUPERIOR&amp;nbsp;" style="edgeLabel;html=1;align=center;verticalAlign=middle;resizable=0;points=[];" parent="9EDs6_VTEpOYnizv38g4-7" vertex="1" connectable="0">
                    <mxGeometry x="0.0173" y="-1" relative="1" as="geometry">
                        <mxPoint as="offset"/>
                    </mxGeometry>
                </mxCell>
                <mxCell id="9EDs6_VTEpOYnizv38g4-10" value="" style="endArrow=classic;html=1;rounded=0;strokeWidth=4;fillColor=#e1d5e7;strokeColor=#9673a6;" parent="1" edge="1">
                    <mxGeometry width="50" height="50" relative="1" as="geometry">
                        <mxPoint x="1044.5" y="400" as="sourcePoint"/>
                        <mxPoint x="1044.5" y="540" as="targetPoint"/>
                        <Array as="points">
                            <mxPoint x="1044.5" y="450"/>
                        </Array>
                    </mxGeometry>
                </mxCell>
                <mxCell id="9EDs6_VTEpOYnizv38g4-11" value="VÍDEO &lt;br&gt;INFERIOR" style="edgeLabel;html=1;align=center;verticalAlign=middle;resizable=0;points=[];" parent="9EDs6_VTEpOYnizv38g4-10" vertex="1" connectable="0">
                    <mxGeometry x="0.2359" y="-2" relative="1" as="geometry">
                        <mxPoint y="-13" as="offset"/>
                    </mxGeometry>
                </mxCell>
                <mxCell id="9EDs6_VTEpOYnizv38g4-12" value="" style="endArrow=classic;html=1;rounded=0;" parent="1" edge="1">
                    <mxGeometry width="50" height="50" relative="1" as="geometry">
                        <mxPoint x="200" y="400" as="sourcePoint"/>
                        <mxPoint x="200" y="540" as="targetPoint"/>
                        <Array as="points">
                            <mxPoint x="200" y="440"/>
                        </Array>
                    </mxGeometry>
                </mxCell>
                <mxCell id="9EDs6_VTEpOYnizv38g4-13" value="NIVEL&lt;br&gt;BATERÍA&lt;br&gt;int" style="edgeLabel;html=1;align=center;verticalAlign=middle;resizable=0;points=[];" parent="9EDs6_VTEpOYnizv38g4-12" vertex="1" connectable="0">
                    <mxGeometry x="0.2359" y="-2" relative="1" as="geometry">
                        <mxPoint x="2" y="-13" as="offset"/>
                    </mxGeometry>
                </mxCell>
                <mxCell id="23" value="" style="edgeStyle=none;html=1;exitX=1;exitY=0.143;exitDx=0;exitDy=0;exitPerimeter=0;" parent="1" source="9EDs6_VTEpOYnizv38g4-14" target="19" edge="1">
                    <mxGeometry relative="1" as="geometry"/>
                </mxCell>
                <mxCell id="9EDs6_VTEpOYnizv38g4-14" value="BBB" style="rounded=1;whiteSpace=wrap;html=1;" parent="1" vertex="1">
                    <mxGeometry x="140" y="150" width="590" height="210" as="geometry"/>
                </mxCell>
                <mxCell id="9EDs6_VTEpOYnizv38g4-15" value="ESP32 &lt;br&gt;CAM" style="rounded=1;whiteSpace=wrap;html=1;" parent="1" vertex="1">
                    <mxGeometry x="1010" y="265" width="70" height="95" as="geometry"/>
                </mxCell>
                <mxCell id="9EDs6_VTEpOYnizv38g4-16" value="ROVER" style="text;html=1;strokeColor=none;fillColor=none;align=center;verticalAlign=middle;whiteSpace=wrap;rounded=0;" parent="1" vertex="1">
                    <mxGeometry x="140" y="-10" width="60" height="30" as="geometry"/>
                </mxCell>
                <mxCell id="9EDs6_VTEpOYnizv38g4-19" value="" style="endArrow=none;html=1;rounded=0;startArrow=classic;startFill=1;endFill=0;fillColor=#dae8fc;strokeColor=#6c8ebf;strokeWidth=5;" parent="1" edge="1">
                    <mxGeometry width="50" height="50" relative="1" as="geometry">
                        <mxPoint x="260" y="400" as="sourcePoint"/>
                        <mxPoint x="260" y="540" as="targetPoint"/>
                        <Array as="points"/>
                    </mxGeometry>
                </mxCell>
                <mxCell id="9EDs6_VTEpOYnizv38g4-20" value="up POS&lt;br&gt;bool" style="edgeLabel;html=1;align=center;verticalAlign=middle;resizable=0;points=[];" parent="9EDs6_VTEpOYnizv38g4-19" vertex="1" connectable="0">
                    <mxGeometry x="0.2359" y="-2" relative="1" as="geometry">
                        <mxPoint x="2" y="-13" as="offset"/>
                    </mxGeometry>
                </mxCell>
                <mxCell id="9EDs6_VTEpOYnizv38g4-21" value="" style="endArrow=none;html=1;rounded=0;startArrow=classic;startFill=1;endFill=0;strokeWidth=5;fillColor=#f8cecc;strokeColor=#b85450;" parent="1" edge="1">
                    <mxGeometry width="50" height="50" relative="1" as="geometry">
                        <mxPoint x="430" y="400" as="sourcePoint"/>
                        <mxPoint x="430" y="540" as="targetPoint"/>
                        <Array as="points"/>
                    </mxGeometry>
                </mxCell>
                <mxCell id="9EDs6_VTEpOYnizv38g4-22" value="MOVIMIENTO&amp;nbsp;&lt;br&gt;ROVER&lt;br&gt;int rover_x&amp;nbsp;&lt;br&gt;int rover_y" style="edgeLabel;html=1;align=center;verticalAlign=middle;resizable=0;points=[];" parent="9EDs6_VTEpOYnizv38g4-21" vertex="1" connectable="0">
                    <mxGeometry x="0.2359" y="-2" relative="1" as="geometry">
                        <mxPoint x="2" y="-13" as="offset"/>
                    </mxGeometry>
                </mxCell>
                <mxCell id="9EDs6_VTEpOYnizv38g4-23" value="" style="endArrow=none;html=1;rounded=0;startArrow=classic;startFill=1;endFill=0;strokeWidth=5;fillColor=#f8cecc;strokeColor=#b85450;" parent="1" edge="1">
                    <mxGeometry width="50" height="50" relative="1" as="geometry">
                        <mxPoint x="360" y="400" as="sourcePoint"/>
                        <mxPoint x="360" y="540" as="targetPoint"/>
                        <Array as="points"/>
                    </mxGeometry>
                </mxCell>
                <mxCell id="9EDs6_VTEpOYnizv38g4-24" value="UP/DOWN&amp;nbsp;&lt;br&gt;SLOW&lt;br&gt;int up&lt;br&gt;int down&lt;br&gt;bool fast" style="edgeLabel;html=1;align=center;verticalAlign=middle;resizable=0;points=[];" parent="9EDs6_VTEpOYnizv38g4-23" vertex="1" connectable="0">
                    <mxGeometry x="0.2359" y="-2" relative="1" as="geometry">
                        <mxPoint x="2" y="-13" as="offset"/>
                    </mxGeometry>
                </mxCell>
                <mxCell id="9EDs6_VTEpOYnizv38g4-27" value="" style="endArrow=none;html=1;rounded=0;startArrow=classic;startFill=1;endFill=0;strokeWidth=5;fillColor=#dae8fc;strokeColor=#6c8ebf;" parent="1" edge="1">
                    <mxGeometry width="50" height="50" relative="1" as="geometry">
                        <mxPoint x="309.5" y="400" as="sourcePoint"/>
                        <mxPoint x="309.5" y="540" as="targetPoint"/>
                        <Array as="points"/>
                    </mxGeometry>
                </mxCell>
                <mxCell id="9EDs6_VTEpOYnizv38g4-28" value="0 POS&lt;br&gt;bool" style="edgeLabel;html=1;align=center;verticalAlign=middle;resizable=0;points=[];" parent="9EDs6_VTEpOYnizv38g4-27" vertex="1" connectable="0">
                    <mxGeometry x="0.2359" y="-2" relative="1" as="geometry">
                        <mxPoint x="2" y="-13" as="offset"/>
                    </mxGeometry>
                </mxCell>
                <mxCell id="9EDs6_VTEpOYnizv38g4-29" value="&lt;font color=&quot;#ffffff&quot;&gt;&lt;b style=&quot;background-color: rgb(126, 166, 224);&quot;&gt;BOTONES&lt;/b&gt;&lt;/font&gt;" style="text;html=1;strokeColor=none;fillColor=#7EA6E0;align=center;verticalAlign=middle;whiteSpace=wrap;rounded=0;" parent="1" vertex="1">
                    <mxGeometry x="880" y="-160" width="90" height="40" as="geometry"/>
                </mxCell>
                <mxCell id="9EDs6_VTEpOYnizv38g4-30" value="&lt;font color=&quot;#ffffff&quot;&gt;&lt;b style=&quot;&quot;&gt;JOYSTICK&lt;/b&gt;&lt;/font&gt;" style="text;html=1;strokeColor=#b85450;fillColor=#EA6B66;align=center;verticalAlign=middle;whiteSpace=wrap;rounded=0;" parent="1" vertex="1">
                    <mxGeometry x="880" y="-110" width="90" height="40" as="geometry"/>
                </mxCell>
                <mxCell id="9EDs6_VTEpOYnizv38g4-31" value="" style="endArrow=classic;html=1;rounded=0;strokeWidth=5;fillColor=#dae8fc;strokeColor=#6c8ebf;" parent="1" edge="1">
                    <mxGeometry width="50" height="50" relative="1" as="geometry">
                        <mxPoint x="510" y="540" as="sourcePoint"/>
                        <mxPoint x="510" y="400" as="targetPoint"/>
                    </mxGeometry>
                </mxCell>
                <mxCell id="9EDs6_VTEpOYnizv38g4-32" value="PULSACIÓN&lt;br&gt;bool" style="edgeLabel;html=1;align=center;verticalAlign=middle;resizable=0;points=[];" parent="9EDs6_VTEpOYnizv38g4-31" vertex="1" connectable="0">
                    <mxGeometry x="-0.4036" y="-1" relative="1" as="geometry">
                        <mxPoint x="-1" y="-28" as="offset"/>
                    </mxGeometry>
                </mxCell>
                <mxCell id="eOEXK1jsx7O4zG9uvunF-1" value="FPGA" style="rounded=1;whiteSpace=wrap;html=1;" parent="1" vertex="1">
                    <mxGeometry x="960" y="-10" width="120" height="60" as="geometry"/>
                </mxCell>
                <mxCell id="6" value="&lt;font color=&quot;#ffffff&quot;&gt;&lt;b&gt;Video&lt;/b&gt;&lt;/font&gt;" style="text;html=1;strokeColor=#9673a6;fillColor=#e1d5e7;align=center;verticalAlign=middle;whiteSpace=wrap;rounded=0;" parent="1" vertex="1">
                    <mxGeometry x="1010" y="-160" width="90" height="40" as="geometry"/>
                </mxCell>
                <mxCell id="7" value="Motor Controller" style="rounded=1;whiteSpace=wrap;html=1;" parent="1" vertex="1">
                    <mxGeometry x="800" y="-10" width="120" height="60" as="geometry"/>
                </mxCell>
                <mxCell id="9" value="" style="endArrow=classic;html=1;rounded=0;strokeWidth=5;fillColor=#dae8fc;strokeColor=#6c8ebf;" parent="1" edge="1">
                    <mxGeometry width="50" height="50" relative="1" as="geometry">
                        <mxPoint x="580" y="540" as="sourcePoint"/>
                        <mxPoint x="580" y="400" as="targetPoint"/>
                    </mxGeometry>
                </mxCell>
                <mxCell id="10" value="MOVIMIENTO&lt;br&gt;CAMERA&lt;br&gt;bool up" style="edgeLabel;html=1;align=center;verticalAlign=middle;resizable=0;points=[];" parent="9" vertex="1" connectable="0">
                    <mxGeometry x="-0.4036" y="-1" relative="1" as="geometry">
                        <mxPoint x="-1" y="-28" as="offset"/>
                    </mxGeometry>
                </mxCell>
                <mxCell id="12" value="" style="endArrow=classic;html=1;rounded=0;entryX=0.5;entryY=1;entryDx=0;entryDy=0;" parent="1" target="V-mfLF6VRmVD93TZzPzP-33" edge="1">
                    <mxGeometry width="50" height="50" relative="1" as="geometry">
                        <mxPoint x="625" y="140" as="sourcePoint"/>
                        <mxPoint x="315" y="65" as="targetPoint"/>
                    </mxGeometry>
                </mxCell>
                <mxCell id="13" value="int sound&lt;br&gt;digital" style="edgeLabel;html=1;align=center;verticalAlign=middle;resizable=0;points=[];" parent="12" vertex="1" connectable="0">
                    <mxGeometry x="-0.4036" y="-1" relative="1" as="geometry">
                        <mxPoint x="-1" y="-15" as="offset"/>
                    </mxGeometry>
                </mxCell>
                <mxCell id="14" value="" style="endArrow=classic;html=1;rounded=0;entryX=0.5;entryY=1;entryDx=0;entryDy=0;exitX=1;exitY=0.5;exitDx=0;exitDy=0;" parent="1" source="19" target="7" edge="1">
                    <mxGeometry width="50" height="50" relative="1" as="geometry">
                        <mxPoint x="860" y="180" as="sourcePoint"/>
                        <mxPoint x="629.41" y="60" as="targetPoint"/>
                        <Array as="points">
                            <mxPoint x="860" y="180"/>
                        </Array>
                    </mxGeometry>
                </mxCell>
                <mxCell id="15" value="Move Rover&lt;br&gt;int motor_right&lt;br&gt;int motor_left&lt;br&gt;RS232" style="edgeLabel;html=1;align=center;verticalAlign=middle;resizable=0;points=[];" parent="14" vertex="1" connectable="0">
                    <mxGeometry x="-0.4036" y="-1" relative="1" as="geometry">
                        <mxPoint x="-1" y="-81" as="offset"/>
                    </mxGeometry>
                </mxCell>
                <mxCell id="16" value="" style="endArrow=classic;html=1;rounded=0;entryX=0.5;entryY=1;entryDx=0;entryDy=0;exitX=1;exitY=0.5;exitDx=0;exitDy=0;" parent="1" source="19" target="eOEXK1jsx7O4zG9uvunF-1" edge="1">
                    <mxGeometry width="50" height="50" relative="1" as="geometry">
                        <mxPoint x="700" y="150" as="sourcePoint"/>
                        <mxPoint x="780" y="50" as="targetPoint"/>
                        <Array as="points">
                            <mxPoint x="1020" y="180"/>
                        </Array>
                    </mxGeometry>
                </mxCell>
                <mxCell id="17" value="Move Plaform/ Camera&lt;br&gt;int camera_x&lt;br&gt;int motor_platform&lt;br&gt;RS445" style="edgeLabel;html=1;align=center;verticalAlign=middle;resizable=0;points=[];" parent="16" vertex="1" connectable="0">
                    <mxGeometry x="-0.4036" y="-1" relative="1" as="geometry">
                        <mxPoint x="28" y="-81" as="offset"/>
                    </mxGeometry>
                </mxCell>
                <mxCell id="19" value="USB-Hub" style="rounded=1;whiteSpace=wrap;html=1;" parent="1" vertex="1">
                    <mxGeometry x="800" y="150" width="120" height="60" as="geometry"/>
                </mxCell>
                <mxCell id="21" value="Termpertur" style="rounded=1;whiteSpace=wrap;html=1;" parent="1" vertex="1">
                    <mxGeometry x="140" y="30" width="90" height="50" as="geometry"/>
                </mxCell>
                <mxCell id="26" value="int temperatura&lt;br&gt;analog" style="endArrow=classic;html=1;exitX=0.5;exitY=1;exitDx=0;exitDy=0;" parent="1" source="21" edge="1">
                    <mxGeometry width="50" height="50" relative="1" as="geometry">
                        <mxPoint x="250" y="-10" as="sourcePoint"/>
                        <mxPoint x="185" y="140" as="targetPoint"/>
                    </mxGeometry>
                </mxCell>
                <mxCell id="31" value="" style="endArrow=classic;html=1;rounded=0;entryX=0.5;entryY=1;entryDx=0;entryDy=0;" parent="1" target="V-mfLF6VRmVD93TZzPzP-34" edge="1">
                    <mxGeometry width="50" height="50" relative="1" as="geometry">
                        <mxPoint x="405" y="145" as="sourcePoint"/>
                        <mxPoint x="499.65999999999997" y="81.99000000000001" as="targetPoint"/>
                    </mxGeometry>
                </mxCell>
                <mxCell id="32" value="&amp;nbsp;int light&lt;br&gt;analog" style="edgeLabel;html=1;align=center;verticalAlign=middle;resizable=0;points=[];" parent="31" vertex="1" connectable="0">
                    <mxGeometry x="-0.4036" y="-1" relative="1" as="geometry">
                        <mxPoint x="-1" y="-15" as="offset"/>
                    </mxGeometry>
                </mxCell>
                <mxCell id="V-mfLF6VRmVD93TZzPzP-33" value="Speaker" style="rounded=1;whiteSpace=wrap;html=1;" parent="1" vertex="1">
                    <mxGeometry x="580" y="30" width="90" height="50" as="geometry"/>
                </mxCell>
                <mxCell id="V-mfLF6VRmVD93TZzPzP-34" value="LED" style="rounded=1;whiteSpace=wrap;html=1;" parent="1" vertex="1">
                    <mxGeometry x="360" y="30" width="90" height="50" as="geometry"/>
                </mxCell>
                <mxCell id="V-mfLF6VRmVD93TZzPzP-35" value="Ventilator" style="rounded=1;whiteSpace=wrap;html=1;" parent="1" vertex="1">
                    <mxGeometry x="470" y="30" width="90" height="50" as="geometry"/>
                </mxCell>
                <mxCell id="V-mfLF6VRmVD93TZzPzP-36" value="" style="endArrow=classic;html=1;rounded=0;entryX=0.5;entryY=1;entryDx=0;entryDy=0;" parent="1" edge="1">
                    <mxGeometry width="50" height="50" relative="1" as="geometry">
                        <mxPoint x="514.66" y="145" as="sourcePoint"/>
                        <mxPoint x="514.66" y="80" as="targetPoint"/>
                    </mxGeometry>
                </mxCell>
                <mxCell id="V-mfLF6VRmVD93TZzPzP-37" value="int speed_ventilator&lt;br&gt;PMW" style="edgeLabel;html=1;align=center;verticalAlign=middle;resizable=0;points=[];" parent="V-mfLF6VRmVD93TZzPzP-36" vertex="1" connectable="0">
                    <mxGeometry x="-0.4036" y="-1" relative="1" as="geometry">
                        <mxPoint x="-1" y="-15" as="offset"/>
                    </mxGeometry>
                </mxCell>
                <mxCell id="1khyDEvlve2WPey4KKvf-32" value="" style="endArrow=none;html=1;rounded=0;entryX=0.5;entryY=1;entryDx=0;entryDy=0;endFill=0;startArrow=classic;startFill=1;" parent="1" edge="1">
                    <mxGeometry width="50" height="50" relative="1" as="geometry">
                        <mxPoint x="294.5" y="145" as="sourcePoint"/>
                        <mxPoint x="294.5" y="80" as="targetPoint"/>
                    </mxGeometry>
                </mxCell>
                <mxCell id="1khyDEvlve2WPey4KKvf-33" value="&amp;nbsp;int battry&lt;br&gt;analog" style="edgeLabel;html=1;align=center;verticalAlign=middle;resizable=0;points=[];" parent="1khyDEvlve2WPey4KKvf-32" vertex="1" connectable="0">
                    <mxGeometry x="-0.4036" y="-1" relative="1" as="geometry">
                        <mxPoint x="-1" y="-15" as="offset"/>
                    </mxGeometry>
                </mxCell>
                <mxCell id="1khyDEvlve2WPey4KKvf-34" value="Battery" style="rounded=1;whiteSpace=wrap;html=1;" parent="1" vertex="1">
                    <mxGeometry x="250" y="30" width="90" height="50" as="geometry"/>
                </mxCell>
                <mxCell id="1khyDEvlve2WPey4KKvf-35" value="" style="endArrow=classic;html=1;rounded=0;strokeWidth=5;fillColor=#dae8fc;strokeColor=#6c8ebf;" parent="1" edge="1">
                    <mxGeometry width="50" height="50" relative="1" as="geometry">
                        <mxPoint x="660" y="540" as="sourcePoint"/>
                        <mxPoint x="660" y="400" as="targetPoint"/>
                    </mxGeometry>
                </mxCell>
                <mxCell id="1khyDEvlve2WPey4KKvf-36" value="MOVIMIENTO&lt;br&gt;CAMERA&lt;br&gt;bool down" style="edgeLabel;html=1;align=center;verticalAlign=middle;resizable=0;points=[];" parent="1khyDEvlve2WPey4KKvf-35" vertex="1" connectable="0">
                    <mxGeometry x="-0.4036" y="-1" relative="1" as="geometry">
                        <mxPoint x="-1" y="-28" as="offset"/>
                    </mxGeometry>
                </mxCell>
                <mxCell id="1khyDEvlve2WPey4KKvf-40" value="int ultra1&lt;br&gt;analog" style="edgeStyle=none;html=1;startArrow=none;startFill=0;endArrow=classic;endFill=1;entryX=1;entryY=0.5;entryDx=0;entryDy=0;" parent="1" source="1khyDEvlve2WPey4KKvf-39" target="9EDs6_VTEpOYnizv38g4-14" edge="1">
                    <mxGeometry relative="1" as="geometry"/>
                </mxCell>
                <mxCell id="1khyDEvlve2WPey4KKvf-39" value="Ultraschall Sensor 1" style="rounded=1;whiteSpace=wrap;html=1;" parent="1" vertex="1">
                    <mxGeometry x="805" y="230" width="90" height="50" as="geometry"/>
                </mxCell>
                <mxCell id="35" value="int ultra2&lt;br&gt;analog" style="edgeStyle=none;html=1;entryX=0.998;entryY=0.795;entryDx=0;entryDy=0;entryPerimeter=0;" parent="1" source="34" target="9EDs6_VTEpOYnizv38g4-14" edge="1">
                    <mxGeometry relative="1" as="geometry"/>
                </mxCell>
                <mxCell id="34" value="Ultraschall Sensor 2" style="rounded=1;whiteSpace=wrap;html=1;" parent="1" vertex="1">
                    <mxGeometry x="805" y="290" width="90" height="50" as="geometry"/>
                </mxCell>
                <mxCell id="37" value="Sensor Pos 0" style="rounded=1;whiteSpace=wrap;html=1;" parent="1" vertex="1">
                    <mxGeometry x="690" y="30" width="90" height="50" as="geometry"/>
                </mxCell>
                <mxCell id="38" value="int pos&lt;br&gt;analog" style="edgeStyle=none;html=1;startArrow=none;startFill=0;endArrow=classic;endFill=1;entryX=0.932;entryY=-0.005;entryDx=0;entryDy=0;exitX=0.5;exitY=1;exitDx=0;exitDy=0;entryPerimeter=0;" parent="1" source="37" target="9EDs6_VTEpOYnizv38g4-14" edge="1">
                    <mxGeometry relative="1" as="geometry">
                        <mxPoint x="815" y="265" as="sourcePoint"/>
                        <mxPoint x="740" y="265" as="targetPoint"/>
                    </mxGeometry>
                </mxCell>
            </root>
        </mxGraphModel>
    </diagram>
</mxfile>